<svg xmlns="http://www.w3.org/2000/svg" width="560" height="360" font-family="Arial">
<rect width="560" height="360" fill="white"/>
<text x="280.0" y="24" font-size="15" font-weight="bold" text-anchor="middle">Desempleo: real vs simulado 2018–2023</text>
<line x1="56" y1="304" x2="504" y2="304" stroke="#333"/><line x1="56" y1="56" x2="56" y2="304" stroke="#333"/>
<text x="56.0" y="320" font-size="10" text-anchor="middle">2018</text>
<text x="145.60000000000002" y="320" font-size="10" text-anchor="middle">2019</text>
<text x="235.20000000000002" y="320" font-size="10" text-anchor="middle">2020</text>
<text x="324.8" y="320" font-size="10" text-anchor="middle">2021</text>
<text x="414.40000000000003" y="320" font-size="10" text-anchor="middle">2022</text>
<text x="504.0" y="320" font-size="10" text-anchor="middle">2023</text>
<text x="48" y="307.0" font-size="9" text-anchor="end">8%</text>
<text x="48" y="245.0" font-size="9" text-anchor="end">11%</text>
<text x="48" y="182.99999999999997" font-size="9" text-anchor="end">14%</text>
<text x="48" y="120.99999999999997" font-size="9" text-anchor="end">16%</text>
<text x="48" y="59.0" font-size="9" text-anchor="end">19%</text>
<polyline points="56,282 146,260 235,134 325,174 414,254 504,276" fill="none" stroke="#0F3460" stroke-width="2.5" />
<polyline points="56,269 146,255 235,158 325,97 414,191 504,184" fill="none" stroke="#E94560" stroke-width="2.5" stroke-dasharray="6,4"/>
<text x="394" y="62" font-size="12" fill="#0F3460">— real (DANE/BM)</text>
<text x="394" y="80" font-size="12" fill="#E94560">- - simulado</text>
</svg>